<svg width="377" height="396" viewBox="0 0 377 396" fill="none" xmlns="http://www.w3.org/2000/svg">
<path d="M246.85 303.142H335.527L348.967 313.208V270.588C348.967 268.447 348.117 266.393 346.602 264.879C345.088 263.365 343.035 262.514 340.894 262.514H246.85C244.709 262.514 242.655 263.365 241.141 264.879C239.627 266.393 238.776 268.447 238.776 270.588V295.066C238.776 296.127 238.985 297.177 239.391 298.156C239.796 299.136 240.391 300.026 241.141 300.776C241.89 301.526 242.781 302.121 243.76 302.527C244.74 302.933 245.79 303.142 246.85 303.142Z" fill="#F4F4F4"/>
<path d="M339.479 273.829H248.264C248.176 273.825 248.094 273.789 248.033 273.726C247.973 273.663 247.939 273.579 247.939 273.492C247.939 273.405 247.973 273.321 248.033 273.258C248.094 273.195 248.176 273.158 248.264 273.155H339.479C339.566 273.158 339.648 273.195 339.709 273.258C339.77 273.321 339.803 273.405 339.803 273.492C339.803 273.579 339.77 273.663 339.709 273.726C339.648 273.789 339.566 273.825 339.479 273.829V273.829Z" fill="white"/>
<path d="M339.479 283.931H248.264C248.176 283.928 248.094 283.891 248.033 283.828C247.973 283.766 247.939 283.682 247.939 283.594C247.939 283.507 247.973 283.423 248.033 283.361C248.094 283.298 248.176 283.261 248.264 283.258H339.479C339.566 283.261 339.648 283.298 339.709 283.361C339.77 283.423 339.803 283.507 339.803 283.594C339.803 283.682 339.77 283.766 339.709 283.828C339.648 283.891 339.566 283.928 339.479 283.931V283.931Z" fill="white"/>
<path d="M339.478 294.034H285.306C285.216 294.034 285.131 293.998 285.067 293.935C285.004 293.872 284.969 293.786 284.969 293.697C284.969 293.607 285.004 293.522 285.067 293.459C285.131 293.395 285.216 293.36 285.306 293.36H339.478C339.568 293.36 339.654 293.395 339.717 293.459C339.78 293.522 339.815 293.607 339.815 293.697C339.815 293.786 339.78 293.872 339.717 293.935C339.654 293.998 339.568 294.034 339.478 294.034Z" fill="white"/>
<path d="M294.831 283.809L293.87 283.914L305.738 392.369L306.7 392.264L294.831 283.809Z" fill="#292A2E"/>
<path d="M325.571 331.155L319.732 388.917L320.694 389.014L326.533 331.253L325.571 331.155Z" fill="#292A2E"/>
<path d="M335.61 381.935H292.287V395.995H335.61V381.935Z" fill="#292A2E"/>
<path opacity="0.2" d="M335.61 381.935H292.287V395.995H335.61V381.935Z" fill="white"/>
<path d="M361.727 356.047C369.934 345.139 366.022 328.347 352.989 318.541C339.955 308.735 322.737 309.628 314.53 320.535C306.323 331.443 310.235 348.235 323.269 358.041C336.302 367.847 353.52 366.954 361.727 356.047Z" fill="#0CBC8B"/>
<path opacity="0.2" d="M361.727 356.047C369.934 345.139 366.022 328.347 352.989 318.541C339.955 308.735 322.737 309.628 314.53 320.535C306.323 331.443 310.235 348.235 323.269 358.041C336.302 367.847 353.52 366.954 361.727 356.047Z" fill="white"/>
<path opacity="0.5" d="M361.726 356.049C361.175 356.784 360.573 357.481 359.926 358.134C350.891 363.906 337.557 362.997 326.978 355.036C313.946 345.232 310.035 328.44 318.243 317.533C318.795 316.799 319.394 316.102 320.038 315.447C329.077 309.671 342.407 310.584 352.99 318.542C366.022 328.349 369.933 345.141 361.726 356.049Z" fill="white"/>
<path d="M301.267 314.665C314.178 304.698 317.687 287.606 309.105 276.487C300.522 265.369 283.098 264.435 270.187 274.401C257.276 284.367 253.767 301.46 262.349 312.579C270.932 323.697 288.356 324.631 301.267 314.665Z" fill="#0CBC8B"/>
<path opacity="0.2" d="M297.177 311.804C287.178 319.527 274.47 320.704 265.258 315.677C264.193 314.738 263.219 313.699 262.351 312.574C253.767 301.459 257.276 284.364 270.186 274.4C280.185 266.681 292.893 265.5 302.1 270.524C303.169 271.463 304.144 272.503 305.012 273.63C313.597 284.746 310.087 301.84 297.177 311.804Z" fill="white"/>
<path d="M366.927 151.497H252.856L238.402 162.323V105.02C238.402 102.879 239.253 100.825 240.767 99.311C242.282 97.7969 244.335 96.9463 246.476 96.9463H366.927C369.068 96.9463 371.121 97.7969 372.635 99.311C374.15 100.825 375 102.879 375 105.02V143.424C375 145.565 374.149 147.619 372.635 149.133C371.121 150.647 369.068 151.497 366.927 151.497Z" fill="#F4F4F4"/>
<path d="M364.798 109.087H248.606C248.561 109.088 248.515 109.081 248.473 109.065C248.431 109.048 248.392 109.024 248.36 108.992C248.327 108.961 248.301 108.923 248.284 108.882C248.266 108.84 248.257 108.795 248.257 108.75C248.257 108.705 248.266 108.66 248.284 108.618C248.301 108.577 248.327 108.539 248.36 108.507C248.392 108.476 248.431 108.452 248.473 108.435C248.515 108.419 248.561 108.412 248.606 108.413H364.798C364.885 108.416 364.968 108.453 365.029 108.516C365.089 108.579 365.123 108.663 365.123 108.75C365.123 108.837 365.089 108.921 365.029 108.984C364.968 109.047 364.885 109.083 364.798 109.087V109.087Z" fill="white"/>
<path d="M364.798 119.95H248.606C248.561 119.952 248.515 119.944 248.473 119.928C248.431 119.912 248.392 119.887 248.36 119.856C248.327 119.824 248.301 119.787 248.284 119.745C248.266 119.703 248.257 119.659 248.257 119.613C248.257 119.568 248.266 119.523 248.284 119.482C248.301 119.44 248.327 119.402 248.36 119.371C248.392 119.339 248.431 119.315 248.473 119.299C248.515 119.282 248.561 119.275 248.606 119.277H364.798C364.885 119.28 364.968 119.317 365.029 119.379C365.089 119.442 365.123 119.526 365.123 119.613C365.123 119.7 365.089 119.784 365.029 119.847C364.968 119.91 364.885 119.947 364.798 119.95V119.95Z" fill="white"/>
<path d="M364.798 130.814H248.605C248.516 130.814 248.43 130.778 248.367 130.715C248.304 130.652 248.269 130.566 248.269 130.477C248.269 130.388 248.304 130.302 248.367 130.239C248.43 130.176 248.516 130.14 248.605 130.14H364.798C364.887 130.14 364.973 130.176 365.036 130.239C365.099 130.302 365.135 130.388 365.135 130.477C365.135 130.566 365.099 130.652 365.036 130.715C364.973 130.778 364.887 130.814 364.798 130.814Z" fill="white"/>
<path d="M344.594 141.677H248.606C248.561 141.679 248.515 141.671 248.473 141.655C248.431 141.639 248.392 141.614 248.36 141.583C248.327 141.551 248.301 141.514 248.284 141.472C248.266 141.43 248.257 141.386 248.257 141.34C248.257 141.295 248.266 141.25 248.284 141.209C248.301 141.167 248.327 141.129 248.36 141.098C248.392 141.066 248.431 141.042 248.473 141.026C248.515 141.01 248.561 141.002 248.606 141.004H344.595C344.64 141.002 344.685 141.01 344.728 141.026C344.77 141.042 344.809 141.066 344.841 141.098C344.874 141.129 344.9 141.167 344.917 141.209C344.935 141.25 344.944 141.295 344.944 141.34C344.944 141.386 344.935 141.43 344.917 141.472C344.9 141.514 344.874 141.551 344.841 141.583C344.809 141.614 344.77 141.639 344.728 141.655C344.685 141.671 344.64 141.679 344.595 141.677H344.594Z" fill="white"/>
<path d="M13.856 263.671H102.531L115.972 273.738V231.117C115.972 228.976 115.121 226.923 113.607 225.408C112.093 223.894 110.039 223.044 107.898 223.043H13.856C11.7147 223.043 9.66099 223.894 8.14681 225.408C6.63264 226.922 5.78198 228.976 5.78198 231.117V255.596C5.78187 256.656 5.99062 257.706 6.39633 258.686C6.80204 259.666 7.39675 260.556 8.1465 261.306C8.89626 262.056 9.78637 262.65 10.766 263.056C11.7457 263.462 12.7957 263.671 13.856 263.671V263.671Z" fill="#F4F4F4"/>
<path d="M106.484 234.358H15.2693C15.1799 234.358 15.0942 234.323 15.031 234.26C14.9679 234.197 14.9324 234.111 14.9324 234.021C14.9324 233.932 14.9679 233.846 15.031 233.783C15.0942 233.72 15.1799 233.685 15.2693 233.685H106.484C106.573 233.685 106.659 233.72 106.722 233.783C106.785 233.846 106.821 233.932 106.821 234.021C106.821 234.111 106.785 234.197 106.722 234.26C106.659 234.323 106.573 234.358 106.484 234.358V234.358Z" fill="white"/>
<path d="M106.484 244.46H15.2695C15.1823 244.457 15.0998 244.42 15.0392 244.357C14.9787 244.295 14.9448 244.211 14.9448 244.123C14.9448 244.036 14.9787 243.952 15.0392 243.89C15.0998 243.827 15.1823 243.79 15.2695 243.787H106.484C106.53 243.785 106.575 243.793 106.617 243.809C106.659 243.825 106.698 243.85 106.73 243.881C106.763 243.912 106.789 243.95 106.807 243.992C106.824 244.033 106.833 244.078 106.833 244.123C106.833 244.169 106.824 244.214 106.807 244.255C106.789 244.297 106.763 244.335 106.73 244.366C106.698 244.397 106.659 244.422 106.617 244.438C106.575 244.454 106.53 244.462 106.484 244.46V244.46Z" fill="white"/>
<path d="M106.484 254.563H52.312C52.2667 254.564 52.2216 254.557 52.1794 254.541C52.1371 254.525 52.0985 254.5 52.0659 254.469C52.0333 254.437 52.0074 254.4 51.9897 254.358C51.972 254.316 51.9629 254.271 51.9629 254.226C51.9629 254.181 51.972 254.136 51.9897 254.094C52.0074 254.053 52.0333 254.015 52.0659 253.984C52.0985 253.952 52.1371 253.928 52.1794 253.911C52.2216 253.895 52.2667 253.888 52.312 253.889H106.484C106.53 253.888 106.575 253.895 106.617 253.911C106.659 253.928 106.698 253.952 106.73 253.984C106.763 254.015 106.789 254.053 106.807 254.094C106.824 254.136 106.833 254.181 106.833 254.226C106.833 254.271 106.824 254.316 106.807 254.358C106.789 254.4 106.763 254.437 106.73 254.469C106.698 254.5 106.659 254.525 106.617 254.541C106.575 254.557 106.53 254.564 106.484 254.563V254.563Z" fill="white"/>
<path d="M159.497 66.9201H17.7291L0 80.201V8.0736C0 5.93235 0.850609 3.8788 2.3647 2.3647C3.8788 0.850609 5.93235 0 8.0736 0L159.497 0C161.639 0 163.692 0.850609 165.206 2.3647C166.72 3.8788 167.571 5.93235 167.571 8.0736V58.8465C167.571 60.9877 166.72 63.0412 165.206 64.5553C163.692 66.0694 161.639 66.92 159.497 66.9201V66.9201Z" fill="#F4F4F4"/>
<path d="M155.055 14.8164H12.5156C12.4263 14.8164 12.3406 14.7809 12.2774 14.7177C12.2142 14.6545 12.1787 14.5688 12.1787 14.4795C12.1787 14.3901 12.2142 14.3044 12.2774 14.2413C12.3406 14.1781 12.4263 14.1426 12.5156 14.1426H155.056C155.145 14.1426 155.231 14.1781 155.294 14.2413C155.357 14.3044 155.393 14.3901 155.393 14.4795C155.393 14.5688 155.357 14.6545 155.294 14.7177C155.231 14.7809 155.145 14.8164 155.056 14.8164H155.055Z" fill="white"/>
<path d="M155.055 28.1433H12.5156C12.4704 28.1449 12.4253 28.1374 12.383 28.1213C12.3407 28.1051 12.3021 28.0805 12.2695 28.0491C12.2369 28.0177 12.211 27.98 12.1933 27.9384C12.1756 27.8967 12.1665 27.8519 12.1665 27.8066C12.1665 27.7614 12.1756 27.7166 12.1933 27.6749C12.211 27.6332 12.2369 27.5956 12.2695 27.5641C12.3021 27.5327 12.3407 27.5082 12.383 27.492C12.4253 27.4758 12.4704 27.4683 12.5156 27.4699H155.056C155.101 27.4683 155.146 27.4758 155.189 27.492C155.231 27.5082 155.269 27.5327 155.302 27.5641C155.335 27.5956 155.361 27.6332 155.378 27.6749C155.396 27.7166 155.405 27.7614 155.405 27.8066C155.405 27.8519 155.396 27.8967 155.378 27.9384C155.361 27.98 155.335 28.0177 155.302 28.0491C155.269 28.0805 155.231 28.1051 155.189 28.1213C155.146 28.1374 155.101 28.1449 155.056 28.1433H155.055Z" fill="white"/>
<path d="M155.055 41.4714H12.5156C12.4704 41.4731 12.4253 41.4656 12.383 41.4494C12.3407 41.4332 12.3021 41.4087 12.2695 41.3773C12.2369 41.3458 12.211 41.3082 12.1933 41.2665C12.1756 41.2248 12.1665 41.18 12.1665 41.1347C12.1665 41.0895 12.1756 41.0447 12.1933 41.003C12.211 40.9613 12.2369 40.9237 12.2695 40.8923C12.3021 40.8608 12.3407 40.8363 12.383 40.8201C12.4253 40.8039 12.4704 40.7964 12.5156 40.7981H155.056C155.101 40.7964 155.146 40.8039 155.189 40.8201C155.231 40.8363 155.269 40.8608 155.302 40.8923C155.335 40.9237 155.361 40.9613 155.378 41.003C155.396 41.0447 155.405 41.0895 155.405 41.1347C155.405 41.18 155.396 41.2248 155.378 41.2665C155.361 41.3082 155.335 41.3458 155.302 41.3773C155.269 41.4087 155.231 41.4332 155.189 41.4494C155.146 41.4656 155.101 41.4731 155.056 41.4714H155.055Z" fill="white"/>
<path d="M83.979 54.7976H12.5156C12.4704 54.7992 12.4253 54.7917 12.383 54.7756C12.3407 54.7594 12.3021 54.7348 12.2695 54.7034C12.2369 54.672 12.211 54.6343 12.1933 54.5927C12.1756 54.551 12.1665 54.5062 12.1665 54.4609C12.1665 54.4156 12.1756 54.3708 12.1933 54.3292C12.211 54.2875 12.2369 54.2498 12.2695 54.2184C12.3021 54.187 12.3407 54.1625 12.383 54.1463C12.4253 54.1301 12.4704 54.1226 12.5156 54.1242H83.979C84.0662 54.1274 84.1487 54.1643 84.2093 54.2271C84.2698 54.2898 84.3037 54.3737 84.3037 54.4609C84.3037 54.5482 84.2698 54.632 84.2093 54.6948C84.1487 54.7576 84.0662 54.7944 83.979 54.7976V54.7976Z" fill="white"/>
<path d="M70.1428 53.3758C70.1428 53.3758 65.2233 49.1173 64.5424 40.0281C64.0154 32.9904 70.1428 37.9373 70.1428 37.9373C70.1428 37.9373 69.8129 32.8666 73.4401 33.6107C77.0673 34.3548 78.7655 39.7721 78.7655 39.7721" fill="#0C0C0C"/>
<path d="M92.3293 35.4668C92.3293 35.4668 110.368 38.6324 102.151 62.8143H97.2577" fill="#0C0C0C"/>
<path d="M72.0125 87.9544C72.0925 87.9442 72.9811 102.687 90.1076 101.402C101.964 100.513 106.192 87.9336 106.466 87.9336C105.188 87.6621 103.608 87.2496 102.98 87.1082C101.612 86.7906 100.372 86.0639 99.4271 85.0248C98.4818 83.9857 97.8753 82.6834 97.6883 81.2912C97.3417 79.2017 97.9297 68.5107 97.7488 66.3965L79.5489 70.4587C79.8031 74.9241 81.5826 85.276 75.3447 87.1082C74.3044 87.411 73.1863 87.69 72.0125 87.9544Z" fill="#E98862"/>
<path opacity="0.52" d="M79.2917 82.8779C79.5768 81.9592 79.7604 81.0119 79.8391 80.0532C80.0392 77.8654 79.9993 75.6623 79.7202 73.4832C83.4193 72.984 86.9042 71.4571 89.7789 69.0762C90.1171 70.3243 91.9754 75.7779 91.4612 76.9641C90.4881 79.2065 85.9174 82.8779 79.2917 82.8779Z" fill="#0C0C0C"/>
<path d="M82.5217 79.3172C89.7282 79.1545 98.6065 75.2028 99.382 65.4863L100.081 56.719C100.857 47.0016 96.3826 38.7176 87.2338 37.9876C78.0854 37.2577 70.6188 44.5885 69.8434 54.305L69.5339 58.1864C69.4508 59.5209 69.4588 60.8595 69.5577 62.1929C69.7934 65.7189 70.1652 71.0796 72.2962 74.8341C74.3079 78.3777 77.9174 79.4194 82.5217 79.3172Z" fill="#E98862"/>
<path opacity="0.52" d="M79.7933 70.2039C78.3104 70.1715 76.8558 69.7913 75.5467 69.0937C75.493 69.0653 75.4527 69.0168 75.4344 68.9589C75.416 68.901 75.4212 68.8382 75.4488 68.784C75.4763 68.7299 75.524 68.6887 75.5816 68.6694C75.6392 68.6501 75.7021 68.6542 75.7567 68.6808C78.5814 70.1159 81.2337 70.1115 83.4275 68.6675C83.4717 68.6369 83.5174 68.6087 83.5646 68.5831C83.592 68.5697 83.6217 68.5619 83.652 68.56C83.6824 68.5581 83.7129 68.5623 83.7416 68.5722C83.7704 68.5821 83.797 68.5975 83.8198 68.6177C83.8426 68.6378 83.8612 68.6623 83.8745 68.6896C83.8879 68.717 83.8957 68.7467 83.8976 68.777C83.8995 68.8074 83.8953 68.8379 83.8855 68.8667C83.8756 68.8954 83.8601 68.922 83.8399 68.9448C83.8198 68.9676 83.7953 68.9862 83.768 68.9995C83.7503 69.0093 83.7238 69.0283 83.6822 69.0548C82.5292 69.8164 81.1751 70.2165 79.7933 70.2039V70.2039Z" fill="#0C0C0C"/>
<path opacity="0.52" d="M79.7149 72.3993C79.4468 72.3981 79.1792 72.3738 78.9151 72.3268C78.8845 72.3224 78.855 72.3118 78.8285 72.2958C78.802 72.2797 78.779 72.2586 78.7608 72.2335C78.7427 72.2084 78.7297 72.1799 78.7227 72.1497C78.7158 72.1195 78.7149 72.0883 78.7202 72.0578C78.7256 72.0272 78.737 71.9981 78.7537 71.9721C78.7705 71.946 78.7923 71.9236 78.8179 71.9062C78.8435 71.8887 78.8724 71.8766 78.9027 71.8705C78.9331 71.8643 78.9644 71.8644 78.9947 71.8706C80.5837 72.1478 81.3963 71.4656 81.4304 71.4364C81.4766 71.3959 81.537 71.3754 81.5983 71.3794C81.6596 71.3834 81.7168 71.4116 81.7573 71.4578C81.7978 71.504 81.8183 71.5644 81.8143 71.6258C81.8103 71.6871 81.7821 71.7443 81.7359 71.7848C81.1535 72.2169 80.4394 72.4341 79.7149 72.3993V72.3993Z" fill="#0C0C0C"/>
<path d="M72.5573 58.8383C73.1814 58.8383 73.6874 58.3323 73.6874 57.7082C73.6874 57.0841 73.1814 56.5781 72.5573 56.5781C71.9332 56.5781 71.4272 57.0841 71.4272 57.7082C71.4272 58.3323 71.9332 58.8383 72.5573 58.8383Z" fill="#0C0C0C"/>
<path d="M83.0331 58.9095C83.6573 58.9095 84.1632 58.4036 84.1632 57.7795C84.1632 57.1554 83.6573 56.6494 83.0331 56.6494C82.409 56.6494 81.9031 57.1554 81.9031 57.7795C81.9031 58.4036 82.409 58.9095 83.0331 58.9095Z" fill="#0C0C0C"/>
<path d="M98.5781 68.4C101.358 68.6211 103.849 65.8273 104.071 63.0473C104.293 60.2672 102.161 58.554 99.3814 58.332L97.7999 60.0806L96.1875 68.209L98.5781 68.4Z" fill="#E98862"/>
<path d="M96.1091 63.7424C96.1091 63.7424 96.0914 49.919 91.9761 48.7898C89.235 48.0382 82.2317 51.5279 76.0694 49.919C73.3725 49.2152 70.7361 49.7174 70.386 50.9898C70.2471 51.4934 69.0379 44.0401 73.6873 38.7563C77.3892 34.5495 88.6156 34.0437 93.5872 35.8383C107.354 40.8055 99.9144 58.9763 99.9144 58.9763L98.9705 63.6783L96.1091 63.7424Z" fill="#0C0C0C"/>
<g opacity="0.52">
<path opacity="0.52" d="M78.329 66.8435H78.3113C77.4152 66.7745 75.9199 66.5587 75.9707 65.888C76.015 65.3327 77.997 59.4543 78.2229 58.7858C78.2435 58.7297 78.2852 58.6839 78.3391 58.6582C78.3929 58.6324 78.4547 58.6287 78.5113 58.6478C78.5679 58.667 78.6147 58.7075 78.6419 58.7606C78.669 58.8138 78.6743 58.8755 78.6566 58.9326C77.7764 61.5358 76.4566 65.5458 76.427 65.9234C76.5031 66.0883 77.4182 66.3156 78.3458 66.3872C78.4044 66.3923 78.4587 66.4197 78.4976 66.4637C78.5365 66.5078 78.557 66.5651 78.5548 66.6238C78.5527 66.6825 78.528 66.7381 78.486 66.7792C78.444 66.8202 78.3878 66.8436 78.329 66.8444V66.8435Z" fill="#0C0C0C"/>
</g>
<path d="M75.7354 54.2368C75.0121 53.9385 74.223 53.8359 73.4475 53.9393C73.0523 53.9887 72.667 54.0978 72.3046 54.2629C71.9345 54.4294 71.5868 54.6417 71.2696 54.8947L71.2448 54.9133C71.1624 54.9665 71.0633 54.9873 70.9665 54.9719C70.8697 54.9565 70.7819 54.9059 70.7201 54.8298C70.6583 54.7537 70.6268 54.6575 70.6316 54.5595C70.6364 54.4616 70.6771 54.3689 70.7461 54.2992C71.0976 53.9727 71.4889 53.6918 71.9106 53.4631C72.3384 53.2294 72.7987 53.061 73.2764 52.9635C73.7547 52.8611 74.2449 52.8246 74.7332 52.8552C75.2358 52.8816 75.7322 52.9795 76.2072 53.1461C76.3542 53.1999 76.4741 53.3095 76.5409 53.4511C76.6077 53.5927 76.6159 53.7549 76.5639 53.9026C76.5119 54.0503 76.4039 54.1715 76.2631 54.24C76.1223 54.3085 75.9602 54.3188 75.8119 54.2687C75.7973 54.2638 75.7836 54.2581 75.7699 54.2523L75.7354 54.2368Z" fill="#0C0C0C"/>
<path d="M82.3676 53.2402C83.3102 52.9163 84.323 52.8535 85.2984 53.0585C85.776 53.156 86.2364 53.3244 86.6641 53.5581C87.0858 53.7868 87.477 54.0678 87.8282 54.3946C87.9045 54.4622 87.9517 54.5566 87.9602 54.6581C87.9686 54.7597 87.9375 54.8605 87.8734 54.9397C87.8093 55.0189 87.7171 55.0704 87.616 55.0833C87.515 55.0962 87.4128 55.0697 87.3308 55.0092L87.3047 54.9897C86.9877 54.7367 86.6401 54.5244 86.2702 54.3579C85.9076 54.1927 85.5221 54.0835 85.1268 54.0339C84.7339 53.9792 84.3353 53.9792 83.9424 54.0339C83.5623 54.0825 83.1905 54.1823 82.8371 54.3305L82.8039 54.3451C82.7325 54.3767 82.6555 54.394 82.5773 54.3959C82.4992 54.3978 82.4214 54.3842 82.3485 54.3561C82.2756 54.3279 82.2089 54.2857 82.1524 54.2317C82.0958 54.1778 82.0504 54.1133 82.0187 54.0418C81.9871 53.9703 81.9698 53.8933 81.9679 53.8152C81.9661 53.737 81.9796 53.6593 82.0077 53.5864C82.0359 53.5135 82.0782 53.4468 82.1321 53.3902C82.186 53.3337 82.2506 53.2882 82.322 53.2566C82.3397 53.2513 82.3547 53.2455 82.3676 53.2402Z" fill="#0C0C0C"/>
<path d="M83.3355 39.4661C84.1721 36.4769 83.204 33.5931 81.1733 33.0247C79.1427 32.4564 76.8183 34.4189 75.9817 37.408C75.1452 40.3971 76.1132 43.281 78.1439 43.8493C80.1746 44.4177 82.499 42.4552 83.3355 39.4661Z" fill="#0C0C0C"/>
<path d="M101 337.013C101 337.013 112.76 343.523 110.398 353.688C108.037 363.853 116.635 364.041 116.635 364.041L127.93 325.87L108.859 320.227L101 337.013Z" fill="#367CFF"/>
<path d="M55.8498 174.095C55.8498 174.095 34.0028 260.707 40.013 273.528C45.9215 286.132 107.107 342.133 107.107 342.133L118.13 321.648L71.2777 265.084C71.2777 265.084 84.5904 234.445 92.2652 210.887C96.8921 196.686 101.912 183.949 102.652 169.032L55.8498 174.095Z" fill="#262626"/>
<path d="M88.072 284.928L81.7646 277.745L83.4062 319.91L90.4364 326.592L88.072 284.928Z" fill="#0A0A0A"/>
<path d="M87.1544 225.812C87.1544 225.812 88.3039 202.274 86.115 206.789C82.1659 214.941 81.134 241.222 81.134 241.222L87.1544 225.812Z" fill="#0A0A0A"/>
<path d="M95.4068 374.846C95.4068 374.846 93.2602 385.974 82.8434 386.593C72.4265 387.211 74.6858 395.511 74.6858 395.511H114.492V375.622L95.4068 374.846Z" fill="#367CFF"/>
<path d="M126.918 171.898C126.918 171.898 127.095 171.078 127.2 175.871C127.816 204.163 116.249 381.945 116.249 381.945L90.0919 381.724L83.0891 170.748L126.918 171.898Z" fill="#262626"/>
<path d="M50.7337 120.411C51.2731 126.749 55.2239 166.288 55.7425 174.095H127.224C127.628 167.054 128.115 136.267 129.646 122.499C131.108 109.361 133.976 102.308 131.874 98.4236C128.438 92.0751 119.052 88.8825 112.652 88.016C108.744 87.4854 102.865 87.1074 102.865 87.1074C102.865 87.1074 102.367 97.1759 90.4995 97.7365C74.3443 98.4987 75.4231 87.1074 75.3431 87.1074C69.4775 87.1074 58.3767 88.5107 54.1164 91.4075C44.5373 97.9222 49.5886 106.98 50.7337 120.411Z" fill="#367CFF"/>
<path d="M54.9678 95.71L38.3223 112.931L23.1637 106.804L7.09693 146.557L6.99745 146.795C5.89459 149.54 5.79414 152.587 6.71373 155.399C7.63332 158.211 9.51417 160.61 12.0261 162.173C14.538 163.737 17.5205 164.366 20.4499 163.949C23.3793 163.533 26.0684 162.098 28.0451 159.896L71.6826 111.281L54.9678 95.71Z" fill="#367CFF"/>
<path d="M69.6235 90.469C69.4936 90.2631 69.3232 90.0857 69.1226 89.9478C68.9219 89.8098 68.6953 89.7142 68.4565 89.6668C68.2177 89.6193 67.9718 89.621 67.7336 89.6718C67.4955 89.7225 67.2702 89.8212 67.0715 89.9619C66.6964 90.2476 66.4438 90.6651 66.3647 91.13C66.2856 91.5948 66.3859 92.0724 66.6453 92.4661L67.473 93.6691L58.3741 87.9388C58.1863 87.8205 57.977 87.7403 57.7582 87.7029C57.5394 87.6655 57.3154 87.6715 57.0989 87.7207C56.8824 87.7699 56.6778 87.8612 56.4966 87.9894C56.3154 88.1177 56.1613 88.2804 56.043 88.4682C55.9247 88.656 55.8446 88.8653 55.8071 89.0841C55.7697 89.3029 55.7758 89.5269 55.8249 89.7434C55.8741 89.9599 55.9654 90.1645 56.0937 90.3457C56.2219 90.5269 56.3846 90.681 56.5724 90.7993L60.3614 93.1868C60.3517 93.195 60.343 93.2044 60.3354 93.2146C59.9014 93.0517 59.4212 93.0631 58.9955 93.2466C58.5698 93.4301 58.2317 93.7714 58.0522 94.1988C57.8965 94.5923 57.8815 95.0276 58.0098 95.4309C58.1382 95.8343 58.402 96.1809 58.7565 96.412L59.261 96.7538C59.2572 96.7741 59.2572 96.7949 59.261 96.8152C58.8684 96.6642 58.4351 96.6562 58.0372 96.7927C57.6393 96.9292 57.3021 97.2014 57.0849 97.5615C56.8559 97.9737 56.7919 98.4575 56.906 98.915C57.0201 99.3725 57.3037 99.7696 57.6994 100.026L58.9431 100.869C58.9157 100.87 58.8889 100.877 58.8652 100.891C58.8415 100.905 58.8216 100.925 58.8074 100.948C58.7921 100.975 58.7851 101.006 58.787 101.037C58.4073 100.999 58.0255 101.084 57.6976 101.279C57.3696 101.474 57.1126 101.769 56.9642 102.121C56.8084 102.514 56.7934 102.95 56.9218 103.353C57.0501 103.756 57.3139 104.103 57.6685 104.334L64.4024 108.913C65.8908 109.922 67.6464 110.462 69.444 110.466C71.2417 110.471 72.9997 109.938 74.4926 108.936L79.2993 105.711L69.6235 90.469Z" fill="#E98862"/>
<g opacity="0.2">
<path opacity="0.2" d="M64.1419 95.7543C64.1225 95.7503 64.104 95.743 64.0871 95.7327L60.3794 93.4575C60.3606 93.4459 60.3442 93.4307 60.3312 93.4127C60.3183 93.3948 60.309 93.3745 60.3039 93.353C60.2935 93.3095 60.3009 93.2637 60.3244 93.2256C60.3478 93.1876 60.3854 93.1604 60.4289 93.1501C60.4724 93.1397 60.5182 93.1471 60.5563 93.1706L64.2635 95.4457C64.2977 95.4662 64.3236 95.4981 64.3366 95.5358C64.3495 95.5736 64.3486 95.6147 64.3341 95.6518C64.3195 95.689 64.2923 95.7198 64.2572 95.7387C64.2221 95.7576 64.1814 95.7635 64.1423 95.7552L64.1419 95.7543Z" fill="#0C0C0C"/>
<path opacity="0.2" d="M62.295 98.757C62.2751 98.7529 62.2561 98.7452 62.2388 98.7344L59.339 96.9217C59.3046 96.8967 59.2811 96.8596 59.2729 96.818C59.2648 96.7763 59.2727 96.7331 59.295 96.697C59.3174 96.6608 59.3525 96.6345 59.3935 96.6232C59.4344 96.612 59.4781 96.6166 59.5158 96.6361L62.4157 98.4488C62.4503 98.4692 62.4765 98.5013 62.4895 98.5392C62.5026 98.5772 62.5016 98.6186 62.4868 98.6559C62.4721 98.6933 62.4444 98.7241 62.4089 98.7429C62.3734 98.7617 62.3324 98.7671 62.2932 98.7583L62.295 98.757Z" fill="#0C0C0C"/>
<path opacity="0.2" d="M60.3107 102.021C60.2921 102.017 60.2743 102.01 60.258 102.001L58.8685 101.177C58.8484 101.167 58.8308 101.152 58.8165 101.134C58.8023 101.116 58.7919 101.096 58.7857 101.074C58.7796 101.052 58.778 101.029 58.781 101.007C58.784 100.984 58.7915 100.963 58.8031 100.943C58.8146 100.923 58.8301 100.906 58.8484 100.893C58.8667 100.88 58.8876 100.87 58.9097 100.865C58.9319 100.86 58.9548 100.859 58.9772 100.863C58.9996 100.867 59.021 100.875 59.04 100.888L60.4291 101.711C60.4628 101.731 60.4882 101.763 60.501 101.8C60.5137 101.838 60.513 101.878 60.4989 101.915C60.4848 101.952 60.4583 101.983 60.4239 102.002C60.3895 102.021 60.3494 102.028 60.3107 102.02V102.021Z" fill="#0C0C0C"/>
</g>
<path d="M39.9941 112.908H54.1235C54.4882 112.908 54.8484 112.827 55.1782 112.671C55.5079 112.515 55.799 112.288 56.0303 112.006C56.2617 111.724 56.4277 111.394 56.5163 111.041C56.6049 110.687 56.6139 110.318 56.5427 109.96L50.9526 81.8671C50.8404 81.3039 50.5353 80.7975 50.0899 80.4352C49.6445 80.0728 49.0867 79.8771 48.5125 79.8819L34.743 79.9978C34.3827 80.0009 34.0274 80.083 33.7021 80.2382C33.3769 80.3934 33.0896 80.618 32.8605 80.8961C32.6314 81.1742 32.466 81.4992 32.3759 81.8481C32.2858 82.1971 32.2733 82.5615 32.3392 82.9158L37.5695 110.892C37.6747 111.459 37.9748 111.97 38.4176 112.338C38.8605 112.706 39.4182 112.908 39.9941 112.908V112.908Z" fill="#262626"/>
<path d="M50.8774 97.2633C50.6611 96.9385 50.3462 96.6919 49.9791 96.5596C49.612 96.4274 49.2121 96.4166 48.8384 96.5289C48.838 96.5061 48.8321 96.4838 48.8211 96.4638C48.8101 96.4438 48.7944 96.4268 48.7754 96.4143C48.7563 96.4018 48.7345 96.3941 48.7118 96.392C48.6891 96.3898 48.6662 96.3933 48.6452 96.402L49.7421 95.3078C50.0889 94.9757 50.2966 94.5244 50.3234 94.045C50.3502 93.5656 50.1939 93.0939 49.8862 92.7253C49.5998 92.4061 49.2101 92.198 48.7855 92.1376C48.3609 92.0772 47.9287 92.1684 47.5646 92.3951C47.5646 92.3769 47.5505 92.3619 47.5447 92.3442L47.9966 91.8941C48.307 91.5951 48.5045 91.198 48.5558 90.77C48.6072 90.3421 48.5091 89.9095 48.2782 89.5456C48.1287 89.3204 47.9311 89.1311 47.6996 88.9915C47.4682 88.8519 47.2086 88.7654 46.9396 88.7383C46.6707 88.7111 46.3991 88.744 46.1444 88.8345C45.8897 88.925 45.6582 89.071 45.4667 89.2617L44.4247 90.3012C44.4202 90.295 44.422 90.2861 44.4167 90.2804C44.4114 90.2746 44.3977 90.2742 44.3897 90.2685C44.6109 89.9191 44.7068 89.5051 44.6617 89.0941C44.6167 88.6831 44.4333 88.2996 44.1417 88.0066C43.4374 87.201 42.1809 87.5949 41.5071 88.267L35.1489 94.4938L35.343 94.2033L36.2427 91.9092C36.4272 91.4659 36.4364 90.9691 36.2685 90.5192C36.1007 90.0694 35.7683 89.7001 35.3386 89.4859C35.113 89.3831 34.8688 89.3274 34.6209 89.3221C34.373 89.3168 34.1267 89.3621 33.8968 89.4551C33.667 89.5482 33.4586 89.687 33.2842 89.8633C33.1098 90.0395 32.9732 90.2494 32.8826 90.4802L27.6213 103.495C27.6213 103.495 38.6788 111.498 41.3307 108.853L50.5967 99.6123C50.9072 99.3132 51.1048 98.9159 51.1559 98.4878C51.2071 98.0597 51.1087 97.6271 50.8774 97.2633V97.2633Z" fill="#E98862"/>
<g opacity="0.2">
<path opacity="0.2" d="M38.3228 96.1706C38.3542 96.2013 38.3964 96.2185 38.4404 96.2185C38.4843 96.2185 38.5265 96.2013 38.558 96.1706L44.4121 90.5176C44.4288 90.5025 44.4423 90.4841 44.4517 90.4636C44.4611 90.4432 44.4664 90.421 44.4671 90.3985C44.4678 90.376 44.464 90.3535 44.4559 90.3325C44.4478 90.3115 44.4356 90.2923 44.4199 90.2761C44.4043 90.2598 44.3855 90.2469 44.3648 90.2381C44.3441 90.2293 44.3218 90.2247 44.2992 90.2246C44.2767 90.2245 44.2544 90.229 44.2336 90.2377C44.2128 90.2464 44.194 90.2592 44.1782 90.2753L38.3241 95.9297C38.3082 95.945 38.2955 95.9634 38.2866 95.9837C38.2778 96.004 38.2731 96.0259 38.2727 96.048C38.2724 96.0701 38.2764 96.0921 38.2845 96.1127C38.2926 96.1333 38.3047 96.1521 38.3201 96.168L38.3228 96.1706Z" fill="#0C0C0C"/>
<path opacity="0.2" d="M40.7447 98.8207C40.7762 98.8514 40.8184 98.8686 40.8623 98.8686C40.9063 98.8686 40.9485 98.8514 40.9799 98.8207L47.5132 92.5121C47.5291 92.4967 47.5419 92.4784 47.5507 92.4581C47.5596 92.4378 47.5644 92.416 47.5648 92.3938C47.5652 92.3717 47.5612 92.3497 47.5531 92.3291C47.545 92.3085 47.533 92.2897 47.5176 92.2738C47.4858 92.2429 47.4435 92.2254 47.3992 92.2246C47.355 92.2239 47.3121 92.24 47.2793 92.2698L40.746 98.5798C40.714 98.6109 40.6956 98.6534 40.6948 98.6981C40.6941 98.7428 40.7111 98.7859 40.7421 98.8181L40.7447 98.8207Z" fill="#0C0C0C"/>
<path opacity="0.2" d="M43.3514 101.707C43.3828 101.738 43.4251 101.755 43.469 101.755C43.5129 101.755 43.5551 101.738 43.5866 101.707L48.7983 96.6748C48.815 96.6596 48.8284 96.6412 48.8379 96.6207C48.8473 96.6002 48.8525 96.578 48.8532 96.5555C48.8539 96.533 48.8501 96.5105 48.8419 96.4895C48.8338 96.4684 48.8215 96.4493 48.8058 96.4331C48.7901 96.4169 48.7713 96.404 48.7506 96.3952C48.7298 96.3864 48.7075 96.3818 48.685 96.3818C48.6624 96.3818 48.6401 96.3863 48.6193 96.3951C48.5985 96.4039 48.5797 96.4167 48.564 96.4329L43.3527 101.467C43.3206 101.498 43.3021 101.541 43.3013 101.586C43.3005 101.63 43.3174 101.673 43.3483 101.706L43.3514 101.707Z" fill="#0C0C0C"/>
</g>
<path d="M25.8169 100.031L46.0754 107.937L30.6644 152.432L6.9458 146.239L25.8169 100.031Z" fill="#367CFF"/>
<path d="M94.2764 160.316C92.0455 160.316 89.8543 159.724 87.926 158.603C85.9977 157.481 84.4011 155.868 83.2985 153.928L60.4019 111.259L79.471 99.0711L94.0439 123.746L109.795 96.5293L130.249 111.536L105.365 153.73C104.288 155.706 102.703 157.358 100.774 158.515C98.8441 159.672 96.6404 160.293 94.3905 160.313L94.2764 160.316Z" fill="#367CFF"/>
<path d="M94.2764 160.484C92.0163 160.481 89.7969 159.881 87.8434 158.744C85.8898 157.608 84.2714 155.975 83.1522 154.011L60.2533 111.338C60.2333 111.301 60.2281 111.257 60.2389 111.216C60.2496 111.175 60.2755 111.14 60.3112 111.117L79.3804 98.929C79.3994 98.9166 79.4208 98.9083 79.4431 98.9046C79.4655 98.9009 79.4884 98.9018 79.5104 98.9073C79.5323 98.9126 79.553 98.9222 79.5711 98.9355C79.5893 98.9489 79.6046 98.9658 79.6161 98.9851L94.043 123.414L104.848 104.938C104.871 104.899 104.908 104.871 104.951 104.86C104.994 104.849 105.04 104.855 105.079 104.878C105.117 104.9 105.145 104.937 105.157 104.98C105.168 105.024 105.161 105.07 105.139 105.108L94.1889 123.831C94.1741 123.856 94.1529 123.877 94.1274 123.892C94.102 123.907 94.0732 123.914 94.0439 123.914V123.914C94.0146 123.914 93.9858 123.907 93.9604 123.892C93.9349 123.878 93.9137 123.857 93.8988 123.832L79.4149 99.3066L60.6247 111.316L83.4479 153.849C84.5378 155.76 86.1134 157.349 88.0152 158.455C89.9169 159.561 92.0773 160.145 94.2773 160.147H94.39C96.6099 160.126 98.7838 159.513 100.687 158.371C102.591 157.229 104.155 155.599 105.218 153.65L127.503 115.655C127.526 115.617 127.563 115.589 127.606 115.577C127.649 115.566 127.695 115.572 127.734 115.595C127.772 115.618 127.8 115.655 127.812 115.698C127.823 115.741 127.817 115.787 127.794 115.826L105.511 153.815C104.419 155.816 102.813 157.488 100.859 158.661C98.904 159.833 96.6721 160.462 94.3931 160.483L94.2764 160.484Z" fill="#0C0C0C"/>
<path d="M99.4479 133.477C99.4181 133.477 99.3888 133.469 99.3631 133.454C99.3374 133.439 99.3162 133.417 99.3015 133.391L93.897 123.828C93.8765 123.789 93.8719 123.744 93.8842 123.702C93.8965 123.66 93.9248 123.624 93.963 123.602C94.0011 123.581 94.0462 123.575 94.0887 123.586C94.1311 123.597 94.1675 123.624 94.1901 123.662L99.5947 133.226C99.6166 133.265 99.6223 133.311 99.6104 133.354C99.5984 133.397 99.5699 133.433 99.531 133.456C99.5056 133.47 99.477 133.477 99.4479 133.477V133.477Z" fill="#0C0C0C"/>
<path d="M34.9623 141.334C34.9356 141.334 34.9093 141.328 34.8856 141.315C34.8618 141.303 34.8413 141.286 34.8257 141.264C34.8101 141.243 34.7999 141.217 34.796 141.191C34.7921 141.165 34.7945 141.138 34.8031 141.113L46.2674 108.013C46.2746 107.992 46.2859 107.972 46.3006 107.956C46.3153 107.939 46.3332 107.926 46.3531 107.916C46.373 107.907 46.3946 107.901 46.4167 107.9C46.4388 107.898 46.4609 107.901 46.4818 107.909C46.5027 107.916 46.522 107.927 46.5385 107.942C46.555 107.957 46.5685 107.975 46.5782 107.994C46.5878 108.014 46.5934 108.036 46.5947 108.058C46.596 108.08 46.593 108.102 46.5857 108.123L35.1215 141.223C35.1096 141.255 35.088 141.283 35.0595 141.303C35.031 141.323 34.997 141.334 34.9623 141.334V141.334Z" fill="#0C0C0C"/>
<path d="M51.5626 133.919C51.5202 133.919 51.4793 133.903 51.4482 133.874C51.4172 133.845 51.3982 133.805 51.395 133.763L50.7319 124.685C50.7287 124.64 50.7433 124.596 50.7725 124.562C50.8017 124.529 50.843 124.508 50.8875 124.505C50.9319 124.502 50.9755 124.517 51.0091 124.546C51.0428 124.575 51.0638 124.616 51.0679 124.66L51.7311 133.738C51.7342 133.783 51.7196 133.827 51.6903 133.86C51.6611 133.894 51.6196 133.915 51.575 133.918L51.5626 133.919Z" fill="#0C0C0C"/>
<path d="M365.412 395.981H28.1313C28.0861 395.982 28.041 395.975 27.9987 395.959C27.9564 395.943 27.9178 395.918 27.8853 395.887C27.8527 395.855 27.8268 395.817 27.8091 395.776C27.7914 395.734 27.7822 395.689 27.7822 395.644C27.7822 395.599 27.7914 395.554 27.8091 395.512C27.8268 395.471 27.8527 395.433 27.8853 395.402C27.9178 395.37 27.9564 395.346 27.9987 395.329C28.041 395.313 28.0861 395.306 28.1313 395.307H365.412C365.457 395.306 365.502 395.313 365.544 395.329C365.587 395.346 365.625 395.37 365.658 395.402C365.69 395.433 365.716 395.471 365.734 395.512C365.752 395.554 365.761 395.599 365.761 395.644C365.761 395.689 365.752 395.734 365.734 395.776C365.716 395.817 365.69 395.855 365.658 395.887C365.625 395.918 365.587 395.943 365.544 395.959C365.502 395.975 365.457 395.982 365.412 395.981V395.981Z" fill="#292A2E"/>
<path d="M276.578 27.3545H146.917C136.191 27.3545 127.495 36.0498 127.495 46.7761V351.579C127.495 362.305 136.191 371 146.917 371H276.578C287.304 371 295.999 362.305 295.999 351.579V46.7761C295.999 36.0498 287.304 27.3545 276.578 27.3545Z" fill="#292A2E"/>
<path d="M276.517 33.4199H146.978C139.613 33.4199 133.642 39.3907 133.642 46.7561V351.147C133.642 358.513 139.613 364.484 146.978 364.484H276.517C283.882 364.484 289.853 358.513 289.853 351.147V46.7561C289.853 39.3907 283.882 33.4199 276.517 33.4199Z" fill="white"/>
<path d="M179.755 30.9121H243.742V37.5329C243.742 38.4733 243.557 39.4046 243.197 40.2734C242.837 41.1423 242.309 41.9317 241.644 42.5965C240.979 43.2614 240.189 43.7887 239.321 44.1484C238.452 44.508 237.52 44.693 236.58 44.6926H186.914C185.015 44.6926 183.194 43.9383 181.852 42.5956C180.509 41.2529 179.755 39.4318 179.755 37.5329V30.9121Z" fill="#292A2E"/>
<path d="M251.157 107.48H153.488L141.085 116.769V67.8114C141.085 66.8734 141.27 65.9446 141.629 65.078C141.988 64.2114 142.514 63.424 143.177 62.7608C143.841 62.0975 144.628 61.5714 145.495 61.2125C146.361 60.8536 147.29 60.6689 148.228 60.6689H251.157C252.095 60.6689 253.024 60.8536 253.89 61.2125C254.757 61.5714 255.544 62.0975 256.208 62.7608C256.871 63.424 257.397 64.2114 257.756 65.078C258.115 65.9446 258.3 66.8734 258.3 67.8114V100.336C258.3 101.274 258.115 102.203 257.756 103.07C257.397 103.937 256.871 104.724 256.208 105.387C255.545 106.051 254.757 106.577 253.891 106.936C253.024 107.295 252.095 107.48 251.157 107.48V107.48Z" fill="#367CFF"/>
<path opacity="0.49" d="M258.3 107.479H153.488L141.085 116.768V60.6689H258.3V107.479Z" fill="white"/>
<path d="M249.545 71.1075H149.84C149.757 71.1075 149.678 71.0748 149.62 71.0165C149.562 70.9583 149.529 70.8793 149.529 70.7969C149.529 70.7145 149.562 70.6355 149.62 70.5773C149.678 70.519 149.757 70.4863 149.84 70.4863H249.545C249.628 70.4863 249.707 70.519 249.765 70.5773C249.823 70.6355 249.856 70.7145 249.856 70.7969C249.856 70.8793 249.823 70.9583 249.765 71.0165C249.707 71.0748 249.628 71.1075 249.545 71.1075V71.1075Z" fill="white"/>
<path d="M249.545 80.4298H149.84C149.757 80.4298 149.678 80.3971 149.62 80.3388C149.562 80.2806 149.529 80.2016 149.529 80.1192C149.529 80.0368 149.562 79.9578 149.62 79.8996C149.678 79.8413 149.757 79.8086 149.84 79.8086H249.545C249.628 79.8086 249.707 79.8413 249.765 79.8996C249.823 79.9578 249.856 80.0368 249.856 80.1192C249.856 80.2016 249.823 80.2806 249.765 80.3388C249.707 80.3971 249.628 80.4298 249.545 80.4298V80.4298Z" fill="white"/>
<path d="M249.546 89.7505H149.84C149.757 89.7505 149.678 89.7178 149.62 89.6595C149.562 89.6012 149.529 89.5222 149.529 89.4397C149.529 89.3573 149.562 89.2782 149.62 89.2199C149.678 89.1617 149.757 89.1289 149.84 89.1289H249.546C249.628 89.1289 249.707 89.1617 249.765 89.2199C249.824 89.2782 249.856 89.3573 249.856 89.4397C249.856 89.5222 249.824 89.6012 249.765 89.6595C249.707 89.7178 249.628 89.7505 249.546 89.7505Z" fill="white"/>
<path d="M199.828 99.0748H149.84C149.757 99.0748 149.678 99.042 149.62 98.9837C149.562 98.9254 149.529 98.8464 149.529 98.7639C149.529 98.6815 149.562 98.6024 149.62 98.5442C149.678 98.4859 149.757 98.4531 149.84 98.4531H199.828C199.91 98.4531 199.99 98.4859 200.048 98.5442C200.106 98.6024 200.139 98.6815 200.139 98.7639C200.139 98.8464 200.106 98.9254 200.048 98.9837C199.99 99.042 199.91 99.0748 199.828 99.0748Z" fill="white"/>
<path d="M186.584 306.873H268.716L281.119 316.162V276.528C281.119 274.633 280.366 272.817 279.026 271.477C277.687 270.138 275.87 269.385 273.976 269.385H186.584C184.689 269.385 182.872 270.138 181.533 271.477C180.193 272.817 179.441 274.634 179.441 276.528V299.73C179.441 301.625 180.193 303.441 181.533 304.781C182.872 306.12 184.689 306.873 186.584 306.873V306.873Z" fill="#367CFF"/>
<path opacity="0.11" d="M186.584 306.873H268.716L281.119 316.162V276.528C281.119 274.633 280.366 272.817 279.026 271.477C277.687 270.138 275.87 269.385 273.976 269.385H186.584C184.689 269.385 182.872 270.138 181.533 271.477C180.193 272.817 179.441 274.634 179.441 276.528V299.73C179.441 301.625 180.193 303.441 181.533 304.781C182.872 306.12 184.689 306.873 186.584 306.873V306.873Z" fill="white"/>
<path d="M272.365 279.824H188.195C188.113 279.824 188.035 279.791 187.977 279.733C187.919 279.675 187.886 279.597 187.886 279.515C187.886 279.432 187.919 279.354 187.977 279.296C188.035 279.238 188.113 279.205 188.195 279.205H272.365C272.447 279.205 272.525 279.238 272.583 279.296C272.641 279.354 272.674 279.432 272.674 279.515C272.674 279.597 272.641 279.675 272.583 279.733C272.525 279.791 272.447 279.824 272.365 279.824V279.824Z" fill="white"/>
<path d="M272.364 289.148H188.195C188.113 289.148 188.034 289.115 187.976 289.057C187.917 288.999 187.885 288.92 187.885 288.837C187.885 288.755 187.917 288.676 187.976 288.617C188.034 288.559 188.113 288.526 188.195 288.526H272.364C272.447 288.526 272.526 288.559 272.584 288.617C272.642 288.676 272.675 288.755 272.675 288.837C272.675 288.92 272.642 288.999 272.584 289.057C272.526 289.115 272.447 289.148 272.364 289.148Z" fill="white"/>
<path d="M272.364 298.468H222.376C222.294 298.468 222.215 298.436 222.156 298.377C222.098 298.319 222.065 298.24 222.065 298.157C222.065 298.075 222.098 297.996 222.156 297.938C222.215 297.879 222.294 297.847 222.376 297.847H272.364C272.447 297.847 272.526 297.879 272.584 297.938C272.642 297.996 272.675 298.075 272.675 298.157C272.675 298.24 272.642 298.319 272.584 298.377C272.526 298.436 272.447 298.468 272.364 298.468V298.468Z" fill="white"/>
<path d="M186.584 179.044H268.716L281.119 188.334V139.857C281.119 137.962 280.366 136.146 279.027 134.806C277.687 133.466 275.87 132.714 273.976 132.714H186.584C184.689 132.714 182.872 133.466 181.533 134.806C180.193 136.146 179.441 137.962 179.441 139.857V171.901C179.441 173.796 180.193 175.613 181.533 176.952C182.872 178.292 184.689 179.044 186.584 179.044V179.044Z" fill="#367CFF"/>
<path opacity="0.11" d="M186.584 179.044H268.716L281.119 188.334V139.857C281.119 137.962 280.366 136.146 279.027 134.806C277.687 133.466 275.87 132.714 273.976 132.714H186.584C184.689 132.714 182.872 133.466 181.533 134.806C180.193 136.146 179.441 137.962 179.441 139.857V171.901C179.441 173.796 180.193 175.613 181.533 176.952C182.872 178.292 184.689 179.044 186.584 179.044V179.044Z" fill="white"/>
<path d="M272.365 151.996H188.195C188.113 151.996 188.035 151.963 187.977 151.905C187.919 151.847 187.886 151.769 187.886 151.686C187.886 151.604 187.919 151.526 187.977 151.468C188.035 151.41 188.113 151.377 188.195 151.377H272.365C272.405 151.377 272.445 151.385 272.483 151.401C272.521 151.416 272.555 151.439 272.583 151.468C272.612 151.496 272.635 151.53 272.65 151.568C272.666 151.606 272.674 151.646 272.674 151.686C272.674 151.727 272.666 151.767 272.65 151.805C272.635 151.842 272.612 151.877 272.583 151.905C272.555 151.934 272.521 151.957 272.483 151.972C272.445 151.988 272.405 151.996 272.365 151.996V151.996Z" fill="white"/>
<path d="M272.365 143.153H188.195C188.113 143.153 188.035 143.121 187.977 143.063C187.919 143.004 187.886 142.926 187.886 142.844C187.886 142.762 187.919 142.683 187.977 142.625C188.035 142.567 188.113 142.534 188.195 142.534H272.365C272.447 142.534 272.525 142.567 272.583 142.625C272.641 142.683 272.674 142.762 272.674 142.844C272.674 142.926 272.641 143.004 272.583 143.063C272.525 143.121 272.447 143.153 272.365 143.153V143.153Z" fill="white"/>
<path d="M272.364 161.318H188.195C188.113 161.318 188.034 161.285 187.976 161.227C187.917 161.169 187.885 161.09 187.885 161.007C187.885 160.925 187.917 160.846 187.976 160.787C188.034 160.729 188.113 160.696 188.195 160.696H272.364C272.447 160.696 272.526 160.729 272.584 160.787C272.642 160.846 272.675 160.925 272.675 161.007C272.675 161.09 272.642 161.169 272.584 161.227C272.526 161.285 272.447 161.318 272.364 161.318V161.318Z" fill="white"/>
<path d="M272.364 170.64H222.376C222.294 170.64 222.215 170.607 222.156 170.549C222.098 170.491 222.065 170.412 222.065 170.329C222.065 170.247 222.098 170.168 222.156 170.11C222.215 170.051 222.294 170.019 222.376 170.019H272.364C272.447 170.019 272.526 170.051 272.584 170.11C272.642 170.168 272.675 170.247 272.675 170.329C272.675 170.412 272.642 170.491 272.584 170.549C272.526 170.607 272.447 170.64 272.364 170.64V170.64Z" fill="white"/>
<path d="M251.157 244.337H153.488L141.085 253.626V213.059C141.085 211.165 141.838 209.348 143.177 208.008C144.517 206.669 146.334 205.916 148.228 205.916H251.157C253.051 205.916 254.868 206.669 256.208 208.008C257.547 209.348 258.3 211.165 258.3 213.059V237.194C258.3 238.132 258.115 239.061 257.756 239.928C257.397 240.794 256.871 241.582 256.208 242.245C255.544 242.908 254.757 243.434 253.89 243.793C253.024 244.152 252.095 244.337 251.157 244.337V244.337Z" fill="#367CFF"/>
<path opacity="0.49" d="M258.3 244.337H153.488L141.085 253.626V205.917H258.3V244.337Z" fill="white"/>
<path d="M249.546 216.356H149.84C149.757 216.356 149.678 216.324 149.62 216.265C149.562 216.207 149.529 216.128 149.529 216.046C149.529 215.963 149.562 215.884 149.62 215.826C149.678 215.768 149.757 215.735 149.84 215.735H249.546C249.628 215.735 249.707 215.768 249.765 215.826C249.824 215.884 249.856 215.963 249.856 216.046C249.856 216.128 249.824 216.207 249.765 216.265C249.707 216.324 249.628 216.356 249.546 216.356Z" fill="white"/>
<path d="M249.546 225.678H149.84C149.757 225.678 149.678 225.646 149.62 225.587C149.562 225.529 149.529 225.45 149.529 225.367C149.529 225.285 149.562 225.206 149.62 225.148C149.678 225.089 149.757 225.057 149.84 225.057H249.546C249.628 225.057 249.707 225.089 249.765 225.148C249.824 225.206 249.856 225.285 249.856 225.367C249.856 225.45 249.824 225.529 249.765 225.587C249.707 225.646 249.628 225.678 249.546 225.678V225.678Z" fill="white"/>
<path d="M199.828 235.18H149.84C149.758 235.18 149.679 235.147 149.621 235.089C149.563 235.031 149.531 234.952 149.531 234.87C149.531 234.788 149.563 234.709 149.621 234.651C149.679 234.593 149.758 234.561 149.84 234.561H199.828C199.91 234.561 199.989 234.593 200.047 234.651C200.105 234.709 200.138 234.788 200.138 234.87C200.138 234.952 200.105 235.031 200.047 235.089C199.989 235.147 199.91 235.18 199.828 235.18V235.18Z" fill="white"/>
<path d="M276.967 350.235H145.861C144.03 350.235 142.275 349.508 140.981 348.213C139.686 346.919 138.959 345.163 138.959 343.333V336.413C138.959 334.583 139.686 332.827 140.981 331.532C142.275 330.238 144.031 329.511 145.862 329.511H276.967C278.797 329.511 280.553 330.238 281.847 331.532C283.142 332.827 283.869 334.583 283.869 336.413V343.333C283.869 345.163 283.142 346.919 281.847 348.214C280.553 349.508 278.797 350.235 276.967 350.235V350.235ZM145.861 330.133C145.036 330.133 144.219 330.295 143.457 330.61C142.695 330.926 142.002 331.389 141.419 331.972C140.835 332.555 140.373 333.247 140.057 334.009C139.741 334.771 139.578 335.588 139.578 336.413V343.333C139.578 344.999 140.24 346.596 141.418 347.774C142.596 348.952 144.194 349.614 145.859 349.614H276.967C278.632 349.614 280.23 348.952 281.408 347.774C282.586 346.596 283.247 344.999 283.247 343.333V336.413C283.247 334.747 282.585 333.15 281.408 331.972C280.23 330.794 278.632 330.133 276.967 330.133H145.861Z" fill="#367CFF"/>
<path d="M265.839 335.41L268.248 339.432L277.574 335.381L269.167 340.968L272.038 345.762L279.333 334.545L265.839 335.41Z" fill="#0CBC8B"/>
</svg>
