<svg width="12" height="12" viewBox="0 0 12 12" fill="none" xmlns="http://www.w3.org/2000/svg">
<path d="M11.6517 5.97199C11.6517 5.80432 11.6117 5.64699 11.5447 5.50399C11.0977 4.06199 9.005 4.16732 6.02834 4.09699C5.53067 4.08532 5.81534 3.49766 5.99 2.20766C6.10367 1.36866 5.56267 0.0803223 4.65334 0.0803223C3.154 0.0803223 4.59634 1.26299 3.27067 4.18766C2.56234 5.75032 0.979004 4.87499 0.979004 6.44466V10.0177C0.979004 10.6287 1.039 11.216 1.89834 11.3127C2.73134 11.4063 2.544 12 3.74567 12H9.76034C10.373 12 10.8713 11.5013 10.8713 10.8887C10.8713 10.6347 10.7823 10.4033 10.6387 10.216C10.9787 10.0257 11.212 9.66632 11.212 9.24966C11.212 8.99632 11.1233 8.76499 10.98 8.57799C11.321 8.38799 11.555 8.02832 11.555 7.61099C11.555 7.30799 11.4323 7.03332 11.2347 6.83232C11.487 6.62866 11.6517 6.32066 11.6517 5.97199Z" fill="#FFDB5E"/>
<path d="M7.67398 7.08299H10.5419C10.9319 7.08299 11.2979 6.87433 11.4973 6.53866C11.5793 6.40033 11.5336 6.22133 11.3949 6.13899C11.2566 6.05666 11.0776 6.10299 10.9953 6.24133C10.9009 6.40099 10.7266 6.49966 10.5416 6.49966H7.60498C7.31398 6.49966 7.07731 6.26299 7.07731 5.97199C7.07731 5.68099 7.31398 5.44433 7.60498 5.44433H9.56731C9.72831 5.44433 9.85898 5.31366 9.85898 5.15266C9.85898 4.99166 9.72831 4.86099 9.56731 4.86099H7.60465C6.99198 4.86099 6.49365 5.35933 6.49365 5.97199C6.49365 6.31366 6.65198 6.61599 6.89531 6.81999C6.69031 7.02166 6.56265 7.30166 6.56265 7.61099C6.56265 7.95366 6.72198 8.25699 6.96665 8.46066C6.76298 8.66199 6.63665 8.94099 6.63665 9.24966C6.63665 9.62299 6.82298 9.95233 7.10631 10.154C6.93165 10.3503 6.82231 10.606 6.82231 10.8887C6.82231 11.5013 7.32065 11.9997 7.93331 11.9997H9.76131C10.1513 11.9997 10.5176 11.7913 10.7169 11.4557C10.7993 11.3173 10.7536 11.1383 10.6153 11.056C10.4766 10.9743 10.2976 11.0193 10.2156 11.1577C10.1206 11.3173 9.94631 11.4163 9.76131 11.4163H7.93331C7.64231 11.4163 7.40565 11.1797 7.40565 10.8887C7.40565 10.5977 7.64231 10.361 7.93331 10.361H10.1019C10.4919 10.361 10.8586 10.1523 11.0576 9.81666C11.1399 9.67799 11.0943 9.49899 10.9559 9.41699C10.8163 9.33333 10.6379 9.38033 10.5563 9.51866C10.4599 9.68099 10.2899 9.77766 10.1019 9.77766H7.74765C7.45665 9.77766 7.21998 9.54066 7.21998 9.24966C7.21998 8.95866 7.45665 8.72199 7.74765 8.72199H10.4446C10.8346 8.72199 11.2009 8.51366 11.4003 8.17799C11.4826 8.03966 11.4369 7.86066 11.2986 7.77833C11.1596 7.69633 10.9809 7.74166 10.8989 7.87999C10.8026 8.04199 10.6326 8.13866 10.4446 8.13866H7.67398C7.38298 8.13866 7.14631 7.90199 7.14631 7.61099C7.14631 7.31999 7.38265 7.08299 7.67398 7.08299Z" fill="#EE9547"/>
</svg>
