<svg width="12" height="12" viewBox="0 0 12 12" fill="none" xmlns="http://www.w3.org/2000/svg">
<path d="M11 10.0653C11 10.7987 10.4 11.3987 9.66667 11.3987H2.33333C1.6 11.3987 1 10.7987 1 10.0653V4.39865C1 3.66531 1.6 3.06531 2.33333 3.06531H9.66667C10.4 3.06531 11 3.66531 11 4.39865V10.0653Z" fill="#FDD888"/>
<path d="M12 3.39865C12 4.13198 11.4 4.73198 10.6667 4.73198H1.33333C0.6 4.73198 0 4.13198 0 3.39865C0 2.66531 0.6 2.06531 1.33333 2.06531H10.6667C11.4 2.06531 12 2.66531 12 3.39865Z" fill="#FDD888"/>
<path d="M1 4.73196H11V5.39863H1V4.73196Z" fill="#FCAB40"/>
<path d="M6.33365 0.731964H5.66699C5.11465 0.731964 4.66699 1.17963 4.66699 1.73196V11.3987H7.33365V1.73196C7.33365 1.17996 6.88599 0.731964 6.33365 0.731964Z" fill="#DA2F47"/>
<path d="M5.33386 2.06529C5.70053 2.06529 5.75486 1.89329 5.45419 1.68295L3.21353 0.11429C2.91286 -0.0960429 2.51853 -0.00770986 2.33653 0.310623L1.66453 1.48662C1.48253 1.80495 1.63386 2.06529 2.00053 2.06529H5.33386ZM6.66719 2.06529C6.30053 2.06529 6.24619 1.89329 6.54686 1.68295L8.78786 0.11429C9.08819 -0.0960429 9.48286 -0.00770986 9.66486 0.310623L10.3369 1.48629C10.5185 1.80495 10.3672 2.06529 10.0005 2.06529H6.66719Z" fill="#DA2F47"/>
</svg>
