<svg width="12" height="10" viewBox="0 0 12 10" fill="none" xmlns="http://www.w3.org/2000/svg">
<path d="M5.53711 4.86301H7.29644V5.21501H5.53711V4.86301Z" fill="#FFAC33"/>
<path d="M7.96238 6.82868H5.10405C4.47971 6.82868 4.01705 6.50402 3.83438 5.93835L3.03271 3.73802L3.73738 3.48102L4.54372 5.69468C4.62872 5.95735 4.81038 6.07835 5.10405 6.07835H7.96238V6.82868Z" fill="#77B255"/>
<path d="M1.62256 3.30167C1.62256 3.69033 1.93756 4.00533 2.5089 4.00533H7.3329V3.30167H1.62256Z" fill="#5C913B"/>
<path d="M11.7602 8.79399C11.7602 8.79399 11.1018 6.74265 10.8498 5.87132C10.5978 4.99999 10.5145 4.33332 11.2088 3.82232C11.5872 3.54399 11.6858 3.20766 11.6102 2.85599C11.4845 2.27199 11.1822 1.49732 11.0368 1.21432C10.9738 1.09132 10.8748 0.961659 10.6792 0.904989C10.6792 0.904989 9.37417 0.325989 5.59917 0.325989C3.48817 0.325989 0.86084 0.644989 0.86084 1.41432V2.61832C0.86084 3.02832 1.19317 3.36066 1.60317 3.36066H6.17051C6.41284 3.36066 6.62717 3.51832 6.69951 3.74999L8.15017 8.34665V8.34699C8.29317 8.81432 7.84517 8.89132 7.84517 9.276C7.84517 9.514 8.03984 9.7083 8.27751 9.7083H11.0885C11.5635 9.7083 11.9022 9.2473 11.7602 8.79399Z" fill="#77B255"/>
<path d="M9.16591 6.00268C9.01791 6.00268 8.88225 5.90301 8.84358 5.75301C8.39125 4.00734 7.47991 2.94034 6.05891 2.49101C4.03391 1.85068 1.59458 2.38334 1.57025 2.38834C1.39058 2.42834 1.21225 2.31534 1.17225 2.13568C1.13191 1.95634 1.24458 1.77801 1.42425 1.73768C1.53091 1.71368 4.06058 1.16001 6.25958 1.85501C7.89458 2.37168 8.98125 3.62701 9.48891 5.58534C9.53524 5.76368 9.42791 5.94534 9.24991 5.99168C9.22191 5.99934 9.19358 6.00268 9.16591 6.00268Z" fill="#A6D388"/>
</svg>
