<svg width="12" height="12" viewBox="0 0 12 12" fill="none" xmlns="http://www.w3.org/2000/svg">
<path d="M6 2.66667L3.66667 0H0L4.66667 5.66667L8.507 4.08333L6 2.66667Z" fill="#55ACEE"/>
<path d="M8.33333 0L6 2.66667L7.79667 5.104L8.20567 4.60767L12 0H8.33333Z" fill="#3B88C3"/>
<path d="M7.73498 5.342C7.76165 5.26967 7.77865 5.19267 7.77865 5.111C7.77865 4.743 7.47998 4.44434 7.11198 4.44434H4.88965C4.52131 4.44434 4.22298 4.743 4.22298 5.111C4.22298 5.19267 4.23965 5.26967 4.26665 5.342C3.18065 5.95067 2.44531 7.111 2.44531 8.44434C2.44498 10.408 4.03698 12 6.00065 12C7.96431 12 9.55631 10.408 9.55631 8.44434C9.55631 7.111 8.82098 5.95067 7.73498 5.342Z" fill="#FF8A3B"/>
<path d="M4.70679 9.78335L5.09946 9.39068C5.14279 9.34668 5.20546 9.34068 5.25512 9.37802C5.25512 9.37802 5.64146 9.66502 5.94046 9.66502C6.20879 9.66502 6.48312 9.44068 6.48312 9.16635C6.48312 8.89202 6.20246 8.66168 5.74146 8.66168H5.52846C5.46646 8.66168 5.41046 8.60568 5.41046 8.54335V8.02602C5.41046 7.95735 5.46646 7.90768 5.52846 7.90768H5.74146C6.17779 7.90768 6.40812 7.69602 6.40812 7.42802C6.40812 7.15968 6.17779 6.96068 5.90946 6.96068C5.63512 6.96068 5.46079 7.10402 5.36746 7.20968C5.32346 7.25968 5.24912 7.25968 5.19946 7.21635L4.81912 6.84235C4.76879 6.79835 4.77512 6.72402 4.81912 6.68035C4.81912 6.68035 5.33012 6.13168 6.00912 6.13168C6.73212 6.13168 7.35546 6.57435 7.35546 7.27235C7.35546 7.75202 6.99379 8.10735 6.71346 8.23802V8.25702C7.00646 8.38168 7.46746 8.76802 7.46746 9.30402C7.46746 9.98335 6.87546 10.4947 6.01512 10.4947C5.23046 10.4947 4.83112 10.108 4.70046 9.94002C4.66279 9.89535 4.66946 9.82668 4.70679 9.78335Z" fill="#7C4119"/>
</svg>
