<svg width="12" height="12" viewBox="0 0 12 12" fill="none" xmlns="http://www.w3.org/2000/svg">
<path d="M7.73812 6.97899L7.16445 4.69233L5.84879 1.75366C5.68145 1.32133 5.89645 0.834994 6.32879 0.667994C6.76079 0.499327 7.24745 0.715661 7.41479 1.14799L9.48245 6.40433L7.73812 6.97899Z" fill="#EF9645"/>
<path d="M10.5216 6.14965C10.3589 5.28932 9.85889 3.97532 9.85889 3.97532L7.92989 0.478987C7.72123 0.0649864 7.21589 -0.101013 6.80223 0.10732C6.38823 0.315987 6.22156 0.820987 6.43056 1.23499L8.20723 4.41732C8.21156 4.42465 8.67823 6.24765 8.67823 6.24765C8.31889 5.91599 7.80923 5.46132 7.33989 5.04165C6.30723 4.11765 5.69456 3.77132 5.69456 3.77132C5.45789 3.62365 5.30156 3.60265 4.98389 3.75165L3.02656 4.60765C2.97423 4.63365 2.92989 4.67032 2.89489 4.71732L2.12389 5.74599C1.82623 6.10165 1.87323 6.63099 2.22889 6.92832C2.58423 7.22599 3.11323 7.17832 3.41156 6.82365C3.42756 6.80432 4.00489 5.97032 4.05689 5.94365C4.40256 5.76599 5.04523 5.46132 5.32623 5.47032C5.62523 5.47999 7.41989 7.45599 7.41989 7.45599C7.48856 7.54232 7.49656 7.66199 7.43989 7.75665L6.46823 9.49932C6.4419 9.54299 6.40389 9.57799 6.35823 9.60032L5.46689 10.1003C5.41556 10.1253 5.35756 10.1333 5.30156 10.1227L3.54489 9.36532C3.45756 9.32765 3.38489 9.25865 3.34756 9.17099C3.08523 8.55432 3.04823 7.96465 3.04789 7.95799C3.02623 7.49465 2.63323 7.13699 2.16989 7.15865C1.70756 7.17732 1.34889 7.57299 1.37056 8.03632C1.37489 8.12399 1.48756 9.91632 2.94623 11.1337C3.78889 11.8363 4.83089 12.1083 6.16256 11.9293C7.69989 11.723 8.65223 11.5183 9.99789 8.74332C10.3702 7.97499 10.6322 6.73532 10.5216 6.14965Z" fill="#FFDC5D"/>
</svg>
