<svg width="12" height="16" viewBox="0 0 12 16" fill="none" xmlns="http://www.w3.org/2000/svg">
<path fill-rule="evenodd" clip-rule="evenodd" d="M11.25 8.6525C11.25 8.3 10.995 8.015 10.65 7.9175C10.1756 7.78664 9.75731 7.50372 9.45925 7.11217C9.16119 6.72063 8.99985 6.24209 9 5.75V2H9.75C10.1625 2 10.5 1.6625 10.5 1.25C10.5 0.8375 10.1625 0.5 9.75 0.5H2.25C1.8375 0.5 1.5 0.8375 1.5 1.25C1.5 1.6625 1.8375 2 2.25 2H3V5.75C3 6.785 2.3025 7.655 1.35 7.9175C1.005 8.015 0.75 8.3 0.75 8.6525V8.75C0.75 9.1625 1.0875 9.5 1.5 9.5H5.235L5.25 14.75C5.25 15.1625 5.5875 15.5 6 15.5C6.4125 15.5 6.75 15.1625 6.75 14.75L6.735 9.5H10.5C10.9125 9.5 11.25 9.1625 11.25 8.75V8.6525Z" fill="#F5D529"/>
</svg>
