<svg xmlns="http://www.w3.org/2000/svg" width="256" height="256"><path fill-opacity=".016" d="M0 128.004v128.004l128.25-.254 128.25-.254.254-127.75L257.008 0H0v128.004m.485.496c0 70.4.119 99.053.265 63.672.146-35.38.146-92.98 0-128C.604 29.153.485 58.1.485 128.5" fill="#fff" fill-rule="evenodd"/><path fill-opacity=".366" d="M8.5 28.386c-6.361 2.772-5.974-1.952-6.275 76.589-.26 67.607-.175 71.755 1.5 73.179 1.606 1.366 5.941 2.458 19.275 4.854 2.475.444 7.2 1.549 10.5 2.455 3.3.905 7.575 2.028 9.5 2.494 3.803.92 8.698 2.609 13.651 4.708 1.733.734 3.652 1.335 4.264 1.335.612 0 1.894.428 2.849.952.955.523 3.536 1.709 5.736 2.636 8.076 3.401 16.494 7.593 17.048 8.49.314.507 1.173.922 1.91.922.737 0 3.973 1.817 7.191 4.038 3.218 2.22 6.976 4.773 8.351 5.673 4.145 2.712 15 13.634 15 15.093 0 .75.563 1.175 1.25.946.983-.327 1.305-16.968 1.506-77.81.276-83.232.578-77.429-4.58-87.815-2.403-4.839-11.804-14.272-18.475-18.54C92.278 44.476 80.901 39 78.788 39c-.763 0-1.816-.358-2.338-.795-1.567-1.31-18.28-6.074-25.95-7.397-5.915-1.02-31.695-3.675-36-3.707-1.65-.013-4.35.566-6 1.285m217.244-.335c-5.915.487-11.623 1.349-12.684 1.917-1.061.568-3.381 1.032-5.156 1.032-1.776 0-5.518.65-8.316 1.444-2.798.794-7.788 2.202-11.088 3.129-3.3.926-6.427 2.076-6.95 2.556-.522.479-1.518.871-2.212.871-2.703 0-16.404 7.282-23.202 12.332-7.546 5.606-14.55 14.165-17.729 21.668-1.812 4.277-1.921 8.356-2.186 82.25-.154 42.763.097 77.75.557 77.75.46 0 4.49-3.537 8.955-7.86 7.469-7.233 17.348-14.541 24.767-18.325 10.654-5.432 13.53-6.829 18-8.744 2.75-1.177 5.781-2.575 6.736-3.106.955-.531 2.403-.965 3.217-.965.813 0 2.957-.616 4.763-1.369 8.503-3.546 22.341-7.462 34.284-9.702 8.78-1.646 15.963-3.412 17.25-4.242.981-.632 1.25-16.454 1.25-73.572V32.349l-2.472-2.323c-2.978-2.798-10.915-3.362-27.784-1.975M35.654 64.679c-.36.36-.654 19.424-.654 42.365 0 35.165.227 41.899 1.446 42.911 1.291 1.071 5.21 2.256 16.554 5.002 5.051 1.222 8.519 2.482 21.981 7.985 4.115 1.682 7.904 3.058 8.421 3.058.517 0 1.766.747 2.775 1.661 1.01.913 2.077 1.419 2.372 1.123.295-.295.508-18.876.473-41.291-.071-45.979.26-43.916-7.898-49.166C73.655 73.521 56.022 67 50.496 67c-1.445 0-3.385-.388-4.312-.863-2.381-1.22-9.748-2.24-10.53-1.458m180.846.838c-2.2.799-5.672 1.46-7.716 1.468-2.044.008-5.194.637-7 1.397s-5.759 2.148-8.784 3.085c-6.805 2.107-9.402 3.305-14.517 6.696-7.946 5.269-7.946 5.27-8.303 22.439-.177 8.469-.024 15.398.338 15.398.363 0 4.907-2.039 10.099-4.531 5.192-2.492 10.787-4.8 12.432-5.129 1.646-.329 3.235-.99 3.531-1.469.296-.479 1.546-.871 2.779-.871 1.233 0 2.669-.416 3.191-.925.523-.509 5.45-2.023 10.95-3.364l10-2.439V80.9c0-18.306.148-17.98-7-15.383m.5 54.672c-10.586 2.979-23.623 7.225-24.45 7.963-.523.466-1.612.848-2.421.848-1.378 0-11.545 4.455-17.129 7.505-2.475 1.352-2.503 1.518-2.776 16.431-.22 11.984-.005 15.064 1.05 15.064.729 0 1.754-.399 2.276-.886 1.291-1.205 17.342-7.489 25.95-10.161 3.85-1.195 8.697-2.798 10.77-3.563 2.074-.764 4.684-1.39 5.8-1.39 1.116 0 3.357-.687 4.98-1.526l2.95-1.525v-14.975c0-16.641.394-15.865-7-13.785" fill="#fff" fill-rule="evenodd"/><path fill-opacity=".202" d="M232.5 29.141c-14.642.854-27.015 3.043-44 7.785-3.318.927-7.93 2.621-11 4.04-1.1.509-4.223 1.9-6.94 3.091-11.95 5.24-22.781 14.38-27.868 23.517-4.825 8.665-4.666 5.743-4.705 86.662-.019 41.827.262 76.322.626 76.656.363.335.89-.067 1.169-.892.28-.825 2.581-3.534 5.113-6.019 8.125-7.974 16.052-13.675 26.105-18.774 2.475-1.255 5.175-2.665 6-3.133.825-.468 4.2-2.056 7.5-3.528 3.3-1.473 7.274-3.323 8.831-4.112 1.557-.789 3.605-1.434 4.55-1.434.945 0 2.146-.358 2.669-.795.522-.437 3.65-1.611 6.95-2.609 3.3-.998 7.575-2.388 9.5-3.087 1.925-.7 6.875-2.03 11-2.955l11.5-2.581c2.2-.494 6.008-1.196 8.462-1.559 8.852-1.312 8.038 6.135 8.038-73.578V35.153l-2.501-2.971c-3.002-3.569-5.568-3.94-20.999-3.041M6.635 31.073 4 33.145v71.567c0 66.987.112 71.653 1.75 72.896.963.731 3.251 1.343 5.086 1.36 6.262.06 40.826 9.23 47.495 12.601 1.557.787 3.476 1.431 4.264 1.431.787 0 2.214.434 3.169.965.955.531 3.986 1.934 6.736 3.118 18.782 8.09 33.696 17.857 43.25 28.326l5.25 5.752v-74.677c0-81.679.052-80.882-5.888-89.916-5.359-8.152-17.318-18.033-26.612-21.988-2.2-.936-5.274-2.35-6.831-3.141-1.557-.792-3.605-1.439-4.55-1.439-.945 0-2.147-.424-2.669-.943-.523-.518-2.975-1.438-5.45-2.045-13.758-3.371-18.019-4.305-23-5.039a261.535 261.535 0 0 1-10.886-1.892C32.151 29.486 25.124 29 19.498 29c-8.833 0-10.588.283-12.863 2.073M33.75 63.579c-.413.415-.75 19.96-.75 43.433 0 47.619-.363 45.219 7 46.248 1.925.269 4.85.953 6.5 1.519 1.65.567 6.825 2.219 11.5 3.673 10.613 3.3 19.038 6.586 26.154 10.2 3.542 1.799 6.496 1.704 7.239-.234 1.177-3.067.665-74.015-.573-79.377-1.631-7.066-5.636-10.895-16.82-16.083-7.64-3.544-8.326-3.803-14.5-5.482-3.3-.898-7.35-2.016-9-2.486-4.592-1.306-15.906-2.26-16.75-1.411m186.25.137c-24.508 2.992-47.374 13.246-51.04 22.889-1.29 3.392-1.252 30.096.043 30.897.552.341 3.139-.469 5.75-1.799 7.108-3.621 13.278-6.334 17.747-7.804 2.2-.724 4.45-1.608 5-1.965.55-.357 6.4-2.112 13-3.9 6.6-1.789 12.563-3.414 13.25-3.612.937-.269 1.25-4.602 1.25-17.284 0-18.009-.006-18.032-5-17.422m-4.5 55.386c-1.65.519-5.475 1.657-8.5 2.53-6.227 1.797-13.286 4.373-21.5 7.847-1.65.698-5.025 2.089-7.5 3.091-2.475 1.002-5.749 2.672-7.275 3.712l-2.775 1.89.275 15.664.275 15.664 2.5-.348c1.375-.191 2.95-.696 3.5-1.123 1.484-1.151 18.633-7.775 26.313-10.164 3.678-1.144 8.68-2.706 11.115-3.472 2.436-.766 5.373-1.393 6.528-1.393 1.154 0 3.099-.701 4.321-1.557 2.139-1.498 2.223-2.158 2.223-17.5V118l-3.25.079c-1.787.043-4.6.504-6.25 1.023" fill="#fff" fill-rule="evenodd"/><path fill-opacity=".244" d="M223.5 30.986c-1.1.48-4.602.905-7.782.944-3.18.038-7.398.745-9.372 1.57-1.975.825-4.998 1.516-6.718 1.535-1.72.02-4.253.679-5.628 1.465s-3.519 1.445-4.764 1.465c-2.266.035-2.861.256-9.067 3.366-1.832.918-3.906 1.669-4.609 1.669-1.683 0-12.964 6.004-13.393 7.127-.184.48-.993.873-1.799.873C158.667 51 144 65.357 144 67.023c0 .616-.675 1.795-1.5 2.62-.825.825-1.5 2.566-1.5 3.869 0 1.304-.45 2.648-1 2.988-.652.403-1 26.963-1 76.417v75.799l5.75-5.702c6.435-6.381 16.305-14.014 18.122-14.014.655 0 1.45-.675 1.766-1.5.317-.825 1.401-1.5 2.41-1.5 1.009 0 2.093-.418 2.409-.93.73-1.181 12.457-7.07 14.08-7.07.67 0 1.778-.675 2.463-1.5s2.053-1.5 3.041-1.5 3.296-.751 5.128-1.669c6.145-3.079 6.796-3.331 8.626-3.331 1.003 0 2.696-.661 3.764-1.468 1.067-.808 3.127-1.483 4.577-1.5 1.449-.018 3.924-.704 5.5-1.526 1.575-.821 4.075-1.496 5.555-1.5 1.48-.003 2.969-.456 3.309-1.006.34-.55 2.181-1 4.091-1 1.91 0 5.089-.675 7.063-1.5 1.975-.825 5.332-1.5 7.461-1.5 2.129 0 5.674-.781 7.878-1.736l4.007-1.736V39.315l-2.329-4.408-2.329-4.407-12.921-.194c-7.107-.107-13.821.199-14.921.68m-7.642 32.052c-3.653.427-7.561 1.268-8.684 1.869-1.123.601-3.396 1.093-5.049 1.093-1.654 0-3.285.45-3.625 1-.34.55-1.476 1-2.525 1-1.816 0-3.619.693-13.975 5.369-2.475 1.118-6.874 4.399-9.775 7.291l-5.275 5.259.275 16.291c.266 15.748.346 16.3 2.4 16.593 1.169.167 2.825-.396 3.679-1.25.854-.854 1.999-1.553 2.544-1.553.544 0 2.264-.636 3.821-1.413 2.976-1.486 8.125-3.717 12.331-5.343 1.375-.532 4.203-1.704 6.284-2.605 2.081-.902 4.804-1.639 6.05-1.639 1.246 0 2.693-.403 3.216-.895.522-.492 2.975-1.363 5.45-1.937 8.757-2.028 12.166-3.001 12.829-3.661.369-.368.813-7.995.987-16.951.271-14.022.088-16.509-1.322-17.919-.9-.9-1.942-1.578-2.315-1.506-.374.073-3.668.481-7.321.907M212 118.752c-2.475.831-5.281 1.902-6.236 2.38-.955.477-2.53.871-3.5.874-.97.004-3.053.679-4.628 1.5-1.576.822-3.419 1.494-4.097 1.494-.677 0-2.538.619-4.135 1.375a141.109 141.109 0 0 1-6.313 2.75c-1.875.756-6.15 2.743-9.5 4.415l-6.091 3.039-.275 16.886c-.274 16.854.319 20.391 2.975 17.735.66-.66 1.955-1.2 2.878-1.2.922 0 2.237-.675 2.922-1.5s2.053-1.5 3.041-1.5 3.071-.633 4.628-1.407c1.557-.775 3.956-1.837 5.331-2.362 1.375-.525 4.203-1.691 6.284-2.592 2.081-.902 4.617-1.639 5.636-1.639 1.018 0 3.14-.672 4.716-1.494 1.575-.821 4.075-1.496 5.555-1.5 1.48-.003 2.932-.397 3.228-.874.295-.478 2.814-1.171 5.598-1.54 4.187-.555 5.229-1.108 6.023-3.197 1.438-3.782 1.237-30.718-.24-32.195-1.59-1.59-8.211-1.325-13.8.552" fill="#fff" fill-rule="evenodd"/></svg>