<svg width="12" height="12" viewBox="0 0 12 12" fill="none" xmlns="http://www.w3.org/2000/svg">
<path d="M12 6C12 9.31367 9.31367 12 6 12C2.68667 12 0 9.31367 0 6C0 2.68667 2.68667 0 6 0C9.31367 0 12 2.68667 12 6Z" fill="#FFCC4D"/>
<path d="M3.83333 6.66668C4.29357 6.66668 4.66667 6.14434 4.66667 5.50001C4.66667 4.85568 4.29357 4.33334 3.83333 4.33334C3.3731 4.33334 3 4.85568 3 5.50001C3 6.14434 3.3731 6.66668 3.83333 6.66668Z" fill="#664500"/>
<path d="M9.48549 5.93232C9.46549 5.88732 8.98583 4.83332 7.99983 4.83332C7.01416 4.83332 6.53416 5.88732 6.51416 5.93232C6.48349 6.00132 6.50349 6.08198 6.56249 6.12932C6.62083 6.17665 6.70449 6.17832 6.76583 6.13398C6.76983 6.13098 7.18649 5.83332 7.99983 5.83332C8.80849 5.83332 9.22449 6.12698 9.23383 6.13365C9.26316 6.15565 9.29849 6.16665 9.33316 6.16665C9.36983 6.16665 9.40683 6.15432 9.43716 6.13032C9.49616 6.08298 9.51649 6.00165 9.48549 5.93232ZM1.99949 4.15265C1.93016 4.15265 1.85982 4.13098 1.79982 4.08598C1.65249 3.97565 1.62282 3.76665 1.73316 3.61932C2.82049 2.16932 4.27183 2.15265 4.33316 2.15265C4.51716 2.15265 4.66649 2.30198 4.66649 2.48598C4.66649 2.66965 4.51816 2.81865 4.33449 2.81932C4.28249 2.81998 3.14482 2.84798 2.26616 4.01932C2.20116 4.10665 2.10082 4.15265 1.99949 4.15265ZM9.66683 4.86098C9.56516 4.86098 9.46549 4.81498 9.39983 4.72765C8.53583 3.57532 7.07949 3.85198 7.06516 3.85432C6.88283 3.89032 6.70916 3.77332 6.67283 3.59298C6.63682 3.41232 6.75383 3.23698 6.93416 3.20065C7.01116 3.18498 8.81983 2.84332 9.93283 4.32732C10.0435 4.47465 10.0135 4.68365 9.86616 4.79398C9.80649 4.83965 9.73649 4.86098 9.66683 4.86098ZM7.75116 7.85898C7.68849 7.82232 7.60716 7.82998 7.55216 7.87898C7.54883 7.88165 7.21449 8.16665 5.99983 8.16665C4.78616 8.16665 4.45116 7.88198 4.45116 7.88198C4.39816 7.82865 4.31649 7.81865 4.25116 7.85465C4.18616 7.89165 4.15349 7.96765 4.17183 8.04032C4.17516 8.05498 4.55316 9.49998 5.99983 9.49998C7.44649 9.49998 7.82449 8.05498 7.82816 8.04032C7.84583 7.96932 7.81349 7.89665 7.75116 7.85898Z" fill="#664500"/>
</svg>
