<svg width="12" height="12" viewBox="0 0 12 12" fill="none" xmlns="http://www.w3.org/2000/svg">
<path d="M7.76088 7.75836C7.76088 7.75836 8.21888 8.30336 8.67188 11.1074C8.71955 11.4017 8.73888 11.699 8.74422 12H11.9999V2.48269C10.5375 1.32502 8.53355 1.08636 6.10722 1.89669C6.10722 1.89669 4.30455 0.896689 4.05821 0.650356C3.81855 0.410356 3.43921 0.131689 3.64655 0.767022C3.76788 1.13769 3.90122 1.55802 4.43255 2.38769C3.28721 3.06636 2.92822 3.94769 1.57988 6.83469C0.550548 9.04002 0.0265481 9.75636 0.312215 10.599C0.688882 11.7114 2.08421 12.464 3.26021 11.606C3.89988 11.1394 4.00888 10.3017 5.33522 9.53169C6.55288 9.51002 7.76088 8.99702 7.76088 7.75836Z" fill="#E1E8ED"/>
<path d="M12.0008 2.00399C9.22253 0.100323 4.78553 0.490989 5.30387 2.06332C8.5042 1.44266 10.5908 2.57699 12.0008 4.45266V2.00399Z" fill="#292F33"/>
<path d="M6.55456 1.921C5.59522 1.99867 4.12789 2.50934 3.41455 3.3C3.41455 3.3 3.41289 1.52767 4.64422 1.372C6.70156 1.11234 6.58056 1.493 6.58056 1.493L6.55456 1.921Z" fill="#292F33"/>
<path d="M5.45201 0.351998C5.63801 0.736997 6.78734 0.948664 7.13734 2.36166C7.48768 3.775 6.09268 3.34533 5.68534 2.64666C5.23168 1.86866 5.07601 1.25933 5.06301 0.753664C5.05601 0.486664 5.07601 -0.425669 5.45201 0.351998Z" fill="#E1E8ED"/>
<path d="M5.53187 0.945988C5.89954 1.26865 6.34787 1.76999 6.4152 2.26432C6.48254 2.75866 6.0402 2.59365 5.83654 2.14032C5.63254 1.68732 5.58554 1.21399 5.45854 1.06265C5.33187 0.911322 5.53187 0.945988 5.53187 0.945988Z" fill="#66757F"/>
<path d="M5.64656 5.17498C5.64656 5.40398 5.4609 5.58965 5.23156 5.58965C5.00256 5.58965 4.81689 5.40398 4.81689 5.17498C4.81689 4.94565 5.00256 4.75998 5.23156 4.75998C5.4609 4.76031 5.64656 4.94598 5.64656 5.17498Z" fill="#292F33"/>
<path d="M3.45157 3.30799C3.44057 3.30232 3.42657 3.30332 3.41457 3.29999C2.90023 3.97765 2.44123 5.00065 1.58457 6.83465C1.13257 7.80232 0.777898 8.48332 0.545898 9.01399C1.08857 9.08932 1.6409 8.53332 1.8609 7.92365C2.08523 7.30165 2.93256 6.03965 3.50323 5.33099C4.0739 4.62199 4.02357 3.61632 3.45157 3.30799Z" fill="#E1E8ED"/>
<path d="M9.39614 2.104C9.39614 2.104 8.63081 4.41967 8.62881 5.08634C8.62514 6.354 7.73314 7.68667 7.73314 7.68667L8.18047 8.82734C8.18047 8.82734 9.26381 7.814 9.49314 5.418C9.68347 3.427 10.3485 2.86234 10.3485 2.86234L9.39614 2.104ZM11.3541 3.146C11.3541 3.146 10.3521 4.35767 10.0001 6.33334C9.52081 9.02067 8.38114 9.582 8.38114 9.582L8.54181 10.3957C8.54181 10.3957 10.3021 9.377 10.7525 7.35734C11.2918 4.93734 12.0001 4.45267 12.0001 4.45267L11.3541 3.146ZM1.08347 7.81267C1.31281 7.57467 2.08914 9.082 2.59347 9.44067C3.12314 9.81734 4.41647 9.75234 4.4938 10.1613C3.9378 10.7293 3.5728 11.5857 2.88047 11.824C2.1878 12.0627 0.977138 12.0497 0.467805 10.9417C-0.0415283 9.83334 0.333472 9.375 0.541805 8.896C0.750138 8.417 1.02781 7.91667 1.08347 7.81267Z" fill="#292F33"/>
<path d="M1.40754 9.97234C1.40754 10.266 1.23021 10.5037 1.01188 10.5037C0.793544 10.5037 0.616211 10.266 0.616211 9.97234C0.616211 9.67834 0.793544 9.44034 1.01188 9.44034C1.23021 9.44034 1.40754 9.67834 1.40754 9.97234Z" fill="#66757F"/>
<path d="M8.65166 10.9817C8.65166 10.9817 10.1877 10.4584 10.6877 9.85402C11.1877 9.24969 12.0003 8.00002 12.0003 8.00002V10.125C12.0003 10.125 11.6043 10.6667 10.771 11.1044C10.2423 11.3817 8.74032 11.8547 8.74032 11.8547L8.65166 10.9817ZM8.33699 2.02669C8.33699 2.02669 8.02132 3.00002 7.93799 4.00002C7.85466 5.00002 7.56299 5.62502 7.29199 6.06269C7.39599 4.64602 7.06265 4.10436 7.25032 3.35436C7.43799 2.60436 7.54032 1.91436 7.54032 1.91436C7.54032 1.91436 7.75032 1.79169 7.95866 1.81269C8.16699 1.83369 8.33699 2.02669 8.33699 2.02669ZM1.58465 6.83469C1.58465 6.83469 2.89599 6.70836 3.50032 7.12502C4.10466 7.54169 5.27766 9.56603 5.27766 9.56603L4.89966 9.81703C4.89966 9.81703 4.33399 8.27069 3.31299 7.79169C2.29199 7.31269 1.31299 7.39569 1.31299 7.39569L1.58465 6.83469Z" fill="#292F33"/>
<path d="M1.86816 6.22599C1.86816 6.22599 3.70683 6.10665 4.18749 6.72899C5.10416 7.91632 5.46449 8.39899 5.66983 9.51199L6.26483 9.40965C6.00016 8.43732 5.39583 6.70832 4.29183 5.97899C3.18783 5.24965 2.20849 5.41632 2.20849 5.41632L1.86816 6.22599ZM5.95816 4.22932C5.74983 4.45865 6.62483 5.33332 6.33316 6.06265C6.04149 6.79199 6.20816 7.81265 6.37483 8.27099C6.54149 8.72932 6.79483 9.21732 6.79483 9.21732L7.33549 8.83532C7.33549 8.83532 7.24983 8.33332 6.99983 7.60432C6.74983 6.87532 6.77049 6.85432 6.87483 6.12499C6.97916 5.39565 6.16649 3.99999 5.95816 4.22932ZM5.01483 2.27632C5.01483 2.27632 5.39549 2.95832 5.37483 3.29165C5.35416 3.62499 5.35416 4.18765 5.16649 4.31232C4.97883 4.43699 4.89583 3.64565 4.77049 3.29165C4.64516 2.93765 4.41583 2.53899 4.41583 2.53899C4.41583 2.53899 4.90549 2.06299 5.01483 2.27632ZM3.83349 2.87299C3.83349 2.87299 4.43116 3.33899 4.41016 3.67232C4.38916 4.00565 4.79149 4.54132 4.60383 4.66632C4.41616 4.79132 3.95783 4.24965 3.83316 3.89565C3.70849 3.54165 3.41416 3.29999 3.41416 3.29999C3.41416 3.29999 3.72383 2.65965 3.83349 2.87299ZM2.97916 3.93732C2.97916 3.93732 3.48649 4.26432 3.62516 4.52065C3.76349 4.77665 4.32849 4.98299 4.27116 5.14565C4.21349 5.30832 3.61216 5.11299 3.37516 4.89565C3.13816 4.67832 2.59349 4.70265 2.59349 4.70265L2.97916 3.93732Z" fill="#292F33"/>
</svg>
